<svg id="A" xmlns="http://www.w3.org/2000/svg" xmlns:xlink="http://www.w3.org/1999/xlink" viewBox="0 0 308.42 201.82"><defs><style>.cls-1{fill:#fff;}.cls-2{fill:#ad5837;}.cls-3{fill:url(#名称未設定グラデーション_37);}.cls-4{fill:#ccaaa3;}.cls-5{fill:#cdaba3;}.cls-6{fill:url(#名称未設定グラデーション_14);}.cls-7{fill:url(#名称未設定グラデーション_15);}.cls-8{fill:url(#名称未設定グラデーション_11);}.cls-9{fill:url(#名称未設定グラデーション_21);}</style><linearGradient id="名称未設定グラデーション_37" x1="249" y1="110.27" x2="296.88" y2="111.85" gradientUnits="userSpaceOnUse"><stop offset="0.13" stop-color="#fff"/><stop offset="0.26" stop-color="#f9f5f4"/><stop offset="0.49" stop-color="#ead9d5"/><stop offset="0.79" stop-color="#d0aca5"/><stop offset="1" stop-color="#bd8a7f"/></linearGradient><linearGradient id="名称未設定グラデーション_14" x1="23.21" y1="133.94" x2="249.97" y2="133.94" gradientUnits="userSpaceOnUse"><stop offset="0.61" stop-color="#fff"/><stop offset="0.73" stop-color="#ede1de"/><stop offset="0.91" stop-color="#d6bab3"/><stop offset="1" stop-color="#cdaba3"/></linearGradient><linearGradient id="名称未設定グラデーション_15" x1="25.44" y1="133.94" x2="144.28" y2="133.94" gradientUnits="userSpaceOnUse"><stop offset="0" stop-color="#cdaba3"/><stop offset="0.54" stop-color="#eee3e0"/><stop offset="0.83" stop-color="#fefdfd"/><stop offset="0.98" stop-color="#fff"/></linearGradient><linearGradient id="名称未設定グラデーション_11" x1="34.25" y1="82.97" x2="243.39" y2="82.97" gradientUnits="userSpaceOnUse"><stop offset="0.14" stop-color="#a74d2a"/><stop offset="0.88" stop-color="#8a3218"/></linearGradient><linearGradient id="名称未設定グラデーション_21" x1="68.84" y1="102.04" x2="235.03" y2="102.04" gradientUnits="userSpaceOnUse"><stop offset="0.32" stop-color="#efa56a"/><stop offset="0.47" stop-color="#ec9e64"/><stop offset="0.91" stop-color="#e58d54"/></linearGradient></defs><g id="レイヤー_6のコピー_2" data-name="レイヤー 6のコピー 2"><ellipse class="cls-1" cx="138.75" cy="139.32" rx="138.75" ry="62.49"/><path class="cls-2" d="M265.37,113.74C244,91.62,195.07,76.16,138.1,76.16c-38.71,0-73.71,7.14-98.88,18.65a48.71,48.71,0,0,0-8.57,27c0,39.82,52.71,72.1,117.74,72.1s117.73-32.28,117.73-72.1A44.82,44.82,0,0,0,265.37,113.74Z"/><path id="totte" class="cls-1" d="M257.75,97.65c-2.58-.06-6,.4-10.17-12.1a8.14,8.14,0,0,1,.16-1.75c.07-33.41,54.49-39.19,60.21,1.38,0,.06,9.21,48.76-54.32,50-3.1.07-5.29,2.24-11.76,8.39-1.18,1.12-1.5,1.66-2.86,1.09-2.88-1.22-17.6-32.17,26.88-27.21a9.1,9.1,0,0,0,3.52-.39c71-26.71-13.7-61.93-9.75-22.7C259.88,96.56,260.36,97.72,257.75,97.65Z"/><path class="cls-3" d="M299,106.72c1.86-5.19-.25-12.78-1.46-16.33,2.09,7.76-4.16,17.72-28.08,26.72a9.1,9.1,0,0,1-3.52.39c-24.76-2.76-31.17,5.6-31.5,13.78C291.52,130,296.78,112.76,299,106.72Z"/><path class="cls-4" d="M239,144.72c1.36.58,1.68,0,2.86-1.09l1.91-1.82c-7.4-2.06,1.85-12.43,4.58-23.16a3.4,3.4,0,0,0,.1-1C224.91,120.59,236.62,143.71,239,144.72Z"/><path class="cls-5" d="M257.75,97.65c2.1.06,2.2-.68,2-2.1-1.76.58-4.12.77-5.37-1.65-1.58-3-2.78-19.86,2.06-29.77a25.54,25.54,0,0,0-8.74,19.67,8.14,8.14,0,0,0-.16,1.75C251.77,98.05,255.17,97.59,257.75,97.65Z"/><path class="cls-6" d="M25.56,78.06c-.08,1.63-.12,3.27-.12,4.91,0,59,50.76,106.84,113.38,106.84S252.2,142,252.2,83c0-1.64,0-3.28-.12-4.91Z"/><path class="cls-7" d="M144.28,78.06H25.56c-.08,1.63-.12,3.27-.12,4.91,0,59,50.76,106.84,113.38,106.84,1.83,0,3.65-.05,5.46-.13Z"/><ellipse class="cls-1" cx="138.82" cy="82.97" rx="113.38" ry="82.97"/><ellipse class="cls-8" cx="138.82" cy="82.97" rx="104.57" ry="74.03"/><path class="cls-9" d="M72.81,120.05a6.79,6.79,0,0,0-1,11.8c17.32,11.9,40.94,19.23,67,19.23C192,151.08,235,120.59,235,83a51.38,51.38,0,0,0-7.64-26.62,6.81,6.81,0,0,0-8.66-2.74C180.58,71.06,119.73,98.84,72.81,120.05Z"/><g id="Forest-"><path class="cls-1" d="M87.91,43.73l-.35,1.37-1,1.09-1.08.68L84.08,47l-3.89-.46-2.91-.86H74.82l-1.65.52-1.77.91-1.72.69-.51.68L68,49l-2.91,2.22L63.68,52.7l-.91,1.66-.69,1.88L61,58.18l-.23,2.12L61,62.87l-.57,2.34L60,67.9l-.23,2.74v2.57l-.28,1.94.62,1.2,1.15.69,2.22.45L67.22,77h2.23l2,.45,2.57.4,1.2.57,1.65-.34,1.49.57.23,1.37-1.83,1.09H72.37L69.17,81h-4.4l-2.12.46-2.22-.23-1,1L59.34,84,58,85.38l-1.31,1-.23,1.66.23,1.83.22,4.34.4,3.54.12,3.49v4l.11,4.34.57,4.06.23,3.54,1,2.23.74,1.71v2.11l-.74,1.66-.34,1-.69.74-.8.23-.85-.51-1.83-1.72-1.2-1.43-.92-2.11L52.49,119l.57-1.38.91-1.31-.34-3.94-.57-5.77-.12-4.29-.23-4.11-.34-2.68-.86-3.2V89.2l-.57-2.34-.23-3.94-.8-8,.35-3.25-.63-8.4V60.18l.28-2.68.8-3.14-.34-1.89.92-2.68L52,46.3l1.2-1.88,2-.86h2.34l1-.57,1.2-.12.69-.91,1.65-1.09,1.72-1L66.14,38l1.08-1.49,1.6-1.08,1.66-.69h1.89l2.34.69,1.48,1.2,5.15,1.14.74.92,1.71.28.52.8,1.14,1.14,1.31.4.8,1.15Z"/><path class="cls-1" d="M106.21,102.92l-.23,2-.4,1.83-.8,1.43-.57,1.54-1,1.6-1.38,1-.91,1.38-1.88,1-1.89.68-2.23.23-2.23.34-2.11.23-2.23-.46-1.83-.34-1.77-.68L83.35,114l-1.48-1.37-1.31-1.55-1.38-.8-1-1.54-.68-1.6-.8-1.54-.12-1.77-.17-2.23.29-1.6.57-2.23V95.55L78,93.32l1.2-3.54,1.26-1.15.23-1.31,1.2-.92,1.48-1,1.43-.86,2.12-.46,1.37.23,1.2.69.68,1.31.23,1.14L90.27,89l-.92,1.2-1.08,1.37-.69,1.54-.11,1.48-1.14,1.09-.63,2.11-.57,1.37L85,101.26V103l.34,1.88.8,1.49,1,1.2,1.25.91,1.2,1.2,1.49.46,1.88.11.23.35,2.11-.12,1.89-.34,2.11-1.43,1.26-1.25,1-1.89.34-1.77v-2.34l-.57-1.37-1-1.78-1-1.42L98,95.66l-1.37-1.09-1.09-.8-.8-.68-.23-1.2.46-.8H96l1,.69,1.42.57.92.74,1.88,1.26,1.26,1,.86,1.25,1,1.55.91,1.37.51,1.31ZM94.49,90.18l-.68.22-.74-.62.45-.46.75.11Z"/><path class="cls-1" d="M134.85,88.86l-.8.23L133,89h-1l-1.55.22-1.88,1.09-.92,1.26-1.88.8-.8,1-1.54,1.37-.69,1.43-.46,1.31v1.71l-.45,1.32-.52,1.37-.45,1.54-.12,1.66v3.71l-.11,1.66-.46,1.66-.11,1.6-.23,1.77v1.65l-.86,1.72-1,1-1.54.46-1,.22-.91-.22-.86-.92-.46-1.08-.45-1.15.11-1.31-.11-1.89V111.2l-.12-1.26.12-1.43.11-1.88V105l.23-1.89.11-1.88L113,99.14V97.43L112.74,96l-.11-1.31-1-1.6-.8-1.31-.45-1.38-.12-1.54.23-1.43.57-1,1-.68,1.6-.57,1.77-.86,1.55.23,1.94.86.23,1.14.86,1.54V90.4l.68.69.69.11,1-.22,1.14-.92,1.54-1,1.77-.8,1.49-.86,1.77-.23,1.89-.45h1l1.43.45.46.86Z"/><path class="cls-1" d="M170.52,94.69l-1,1.54-1.66.92-2,.85-2.45.8-2.69.23-2.45.57-1.72.86-2,.68-1.65.46-2.69.12-2.11-.23-1.43.11-1.26.46-.57,1.31.23,2.46.68,1.31,1.32,1.6,2.46,2.69,1.25,1.2,2.46,1.25,1.31.63,1.6.69H158l1.77-.46,1.48-.23,1.66-.63,1.66-.34h1l.11.46-.57.63-1,.68-1.77.92-1.89,1-1.77.68-1.71.46-2.57-.11-2.57-.58-2.12-1.08-2.45-1.6L145,113.08l-1.54-1L142.35,111l-1-1.37-.68-.51-1.43-3.49-1.26-3-.8-2.45-.28-1.89.17-2.11.46-2.23L138,92l.57-1.25.57-1.43.52-.69,1-.91.8-.12,1.43-2,1.65-1.43,1.72-.92,2.11-.34h2.68l2.23-.11,3,.34,2.46.68,6.8,3.37,1.77,1.09L169,89.78,170,91l.57,2Zm-10.86-3.34-1-1-1.48-.75-1.66-.7-1.88-.23h-1.83l-1.66.47-1.66.69L147,90.89l-.86.46-.91,1,.34.76.8-.12,1.31.12H150l1.89.45h1.94l2.11-.11,1.89-.46,1.66-.46Zm5,20.71-.68.57-.63-.57.34-.75h.86Z"/><path class="cls-1" d="M173.57,82.81l-.86.45-.91-.74.68-.91,1.09.22ZM199.5,109.6l-.22,1.6L198.7,113l-.8,1.54-1.2,1.14L195.22,117l-1.31.46-1.43.8-1.26.57-1.77.11h-3.6l-1.2-.91-1.6-.12-2.23-.57-1.88-.74-1.09-.92-1.14-.45-.69-1.32-.62-1.25V111l.62-1.66.46-1,.8-1.15,1-.17.46,1-.46,1.26-.11,1.43v1.65l.8,1.26,1.54.57,1.6.63,1.43.57,2.34.23,1.49.69,1.88-.46,1.54-.46,1.15-.68,1.54-1.09,1.14-.91.86-.86.11-1.6v-1.88l-.57-1.43-1.2-1.49-1.66-.57-1.94-1-.74-.69-2.11-1.08-1.49-.92-1.66-.68-1-.57-1.55-.4-1-.12-1.42-.8-1.32-.8-.8-1.42-.8-1.15-.57-1.54-.11-1.77.45-1.6.12-1.43.68-1.66.92-1.37,1-1.31.23-.69.8-1h1.08l.35-1.2,1.25-.35,1.32-.68,1.54-.12,1.71-.28,2.23-.69,2-.45h1.66l1.6.45,1.2.69,1.37,1.08.85.57.92,1.32.34.8v1.66l-.8,1.25-.8.86-1.44.57-2.35.23-1.89-.23-1.61-.11-1.77.34-1.67.8-1.14.86-1.09,1.14L184.14,93l.68,1.26,1.09,1,1.5.35,1.08.8,1,.91,1.2,1,1,1.14,1.09.23.92.52.8,1,1.09.46,1,.63,1.21,1,.92,1.14.11,1.66.34,1.88Z"/><path class="cls-1" d="M234.66,82.41l-.11.85-.86.57-1.49.35-1.65.11-1.77.46h-1.6l-1.78.11-2.22.52-1.32-.4-1.6.51-1.2.8-.57.91v1.09l-.11,1.77-.46.92v1.37l-.34,1.54L217,96.12,216.72,98v7.37l.12,1.77-.12,2.17-.46,1.66-.11,1.31-.23,2.23.46,3.94.46,1,.74,1.6,1.14.85,2.11.8,1.26-.11h2.52l-.63.91-2,.74h-2.69l-1.71-.28-1.77-.57-1.66-1-1.71-.57-1.77-1.89-.86-1.88-.12-2.12-.45-2.11-.46-1.49.23-2.22v-2.35l-.23-1.77.34-1.65-.57-2.23-.23-2.57-.11-2.06.11-1.88.46-2.12V86.06l-1.54.23-1.49.46-1.65.57-1.15.86-1.08.22-.8-.11-.46-.57v-.63l.23-1,.68-.68,1.21-.63,1.25.11,1.54-.34,1.49-.23,1.77-.11.23-1-.23-1.66.23-1.88.11-2.46-.11-1.6-.23-1.43-.46-1.43V71.44L209,70l1.66-.8,1.14-1.2,1.77-.69,1.43.12,1.25.57,1.32.86.46.8.91,1.08.34.92.86,1.42.23.69-.12,1.66-.45,1.25-.17,1.43-.58,1.14.23,1.09,1,.68,1.6.35,1.54-.23h4.35l1.25.23,2.23.11,1.66.46.8.11Zm-1.77,7-.69,1.2-1.42-.23-.23-1.08,1-.34Z"/></g><path class="cls-1" d="M170.71,88.38a1.16,1.16,0,0,1-1.2-.48c-.65-.86-1.58-2.42-.81-3.4,1.11-1.41,3.37-1.44,3.63-.52s.68,3.92-.33,4.13Z"/><path class="cls-1" d="M228.11,91.19a1.54,1.54,0,0,1,1.37-.18c.93.36,2.39,1.12,1.94,2.19-.64,1.56-2.9,2.59-3.47,2s-2-2.64-1-3.24Z"/><path class="cls-1" d="M210.38,60.46A.9.9,0,0,1,210,59c.32-.35.68-.68,1-.68.61,0,16.05-1,16.43-.34.5,1-2.78,3.2-4.07,3.19C222.35,61.16,213.68,61.52,210.38,60.46Z"/><path class="cls-1" d="M90.23,58a22.07,22.07,0,0,0,6.3.17h.19c5.33.8,1.39,2.6.63,2.92a.84.84,0,0,1-.24.06c-.87.07-6.2.49-6.42,0-.14-.31-1-.78-1.54-1.51A1,1,0,0,1,90.23,58Z"/><path id="cc" class="cls-1" d="M103.56,53.26l-.45.67-.44-.4-.49-.54.58-.62h.8Zm23.37-3.91-.18,1.2-.44.89-1.2,2.09-1.25.4h-1.73l-1.47-.49-1.15-.18L118,52.82h-1.37l-.94.35-1.6.93-.93,1-1,1.29-.66,1.29-.36,1.07-.27.75-.62.53-.4,1.83-.09,1.33v2.58l.58,1.37,1.16,1.16,1,.44,1.55.49,1,.45h3.38l1.46-.27.8-.36.63-.48.84.08.44.76-.17.62-.89.71-1.2.58-1.56.62-1.37.45-1.16.17-2.27.23-2.13-.23L110.58,72l-1.2-.53-1.25-.85-.93-.35L106.67,69l-.58-1.11-.36-1.29L105.56,65l-.45-1.82-.27-2V59.75l-.08-1.91.08-1.47.27-1.55.62-1.29.27-.89V50.91l.4-1.29,1.73-1.51.8-.4.62-.18,1.65-.62,1.11-.36,1-.09,1.64-.4,1.65-.62,1.28-.36,1.34-.35,1.29.09,1.46.26,1.38.45,1.33,1,1.11.71.89.93Z"/><path id="c" class="cls-1" d="M103.56,53.26l-.45.67-.44-.4-.49-.54.58-.62h.8Zm23.37-3.91-.18,1.2-.44.89-1.2,2.09-1.25.4h-1.73l-1.47-.49-1.15-.18L118,52.82h-1.37l-.94.35-1.6.93-.93,1-1,1.29-.66,1.29-.36,1.07-.27.75-.62.53-.4,1.83-.09,1.33v2.58l.58,1.37,1.16,1.16,1,.44,1.55.49,1,.45h3.38l1.46-.27.8-.36.63-.48.84.08.44.76-.17.62-.89.71-1.2.58-1.56.62-1.37.45-1.16.17-2.27.23-2.13-.23L110.58,72l-1.2-.53-1.25-.85-.93-.35L106.67,69l-.58-1.11-.36-1.29L105.56,65l-.45-1.82-.27-2V59.75l-.08-1.91.08-1.47.27-1.55.62-1.29.27-.89V50.91l.4-1.29,1.73-1.51.8-.4.62-.18,1.65-.62,1.11-.36,1-.09,1.64-.4,1.65-.62,1.28-.36,1.34-.35,1.29.09,1.46.26,1.38.45,1.33,1,1.11.71.89.93Z"/><path id="a-2" data-name="a" class="cls-1" d="M155.28,69.83l-.1.63-.66.66-1.6.74-.72-1,.49-1.67-.61-.93L151.7,67l-.38-.36-.56.27-.8.49-.85,1-1.36.75-.85.8-1.46.71-1.65.58-1.41.45-1.27.35-.94.36-1-.27-1.36-.18-1.6-.62-1.46-.84-.9-1.07-.66-1.2-.09-1.91V65l.28-1.42.9-1.47.84-1.38,1.18-1,1.22-.85,1.65-.26,1.46-.18,1.65-.36,1.41-.84,1.83-.89.9-.36.94-.26.38-.93L147,53.53l-.89-1.16-1.88-1.64-1.93-.54-1.56-.08-.56.08h-1l-1.18.54-1,.62-1.27.18h-1.41l-1.65.4h-1.46L130,51.35l-.84-.8-.1-1.11.28-1,1-1.11,1-1.29,1.27-1,1.41-.71,1.55-1.2,1.46-.62,2.68-.49,2.31-.17,1.65.44,1.36.67,1.46.44,1.65,1,.85.8.84,1.29.62,1.64.47,1.6.66,2.14.61,1.6.09,1.37.76,1.51.5,2.08-.6,2.23.85,3.65.52,1.38.94,1,.5,2Zm-6.55-9.46-.37-.53L147,59.48l-1.17.09-1,.44-1.18.36-1.22.62-1.18.18-1,.49-.9.62-.56.8-.71,1-.18.89-.38.84V66.9l.47.93,1.27.36h1.37l1.5-.36.71-.71.94-.22,2.21-1.42,1.08-.67.76-1.15.8-.94.09-1.24Z"/><path id="a-3" data-name="a" class="cls-1" d="M153.81,69.83l-.09.63-.62.66h-.67l-.71-.75-.35-1.16-.58-.93L150.43,67l-.35-.36-.53.27-.76.49-.8,1-1.29.75-.8.8-1.38.71-1.55.58-1.33.45-1.2.35-.89.36-.94-.27-1.28-.18-1.51-.62-1.38-.84-.85-1.07-.62-1.2-.09-1.91V65l.27-1.42L134,62.1l.8-1.38,1.11-1,1.16-.85,1.55-.26,1.38-.18,1.56-.36,1.33-.84,1.73-.89.85-.36.89-.26.35-.93L146,53.53l-.84-1.16-1.78-1.64-1.82-.54-1.47-.08-.53.08h-.94l-1.11.54-1,.62-1.2.18H134l-1.55.4h-1.38L130,51.35l-.8-.8-.09-1.11.27-1,.93-1.11,1-1.29,1.2-1,1.33-.71,1.47-1.2,1.37-.62,2.54-.49,2.17-.17,1.56.44,1.29.67,1.38.44,1.55,1,.8.8.8,1.29.58,1.64.44,1.6.62,2.14.58,1.6L151,54.9l-.09,1.74.45,2,.26,2.08.8,3.65.49,1.38.45,1.24.35,1.56Zm-6.18-9.46-.35-.53L146,59.48l-1.11.09-1,.44-1.11.36-1.15.62-1.12.18-1,.49-.85.62-.53.8-.67,1-.17.89-.36.84V66.9l.44.93,1.2.36h1.29l1.42-.36.67-.71.89-.22L145,65.48l1-.67.71-1.15.76-.94.09-1.24ZM150,72.3l-.42-.79-.84-.39-.41.86.41.52Zm6.74-11.75-.36.63-.89.48-.66-1.16,1-.83Z"/><path id="f" class="cls-1" d="M167.28,30.19,167,31.87v1.91l-.47,1.45.3,1.49.18,3.07.28,3.89.15.69.49,4,.17,3.08v2.16l.18,1.2,0,1.27.18,3.24,0,1.42L168,62.12l.07,1.22,0,1.58-.14,1.59-.21,2.09-1,1.72-.36,1.6-.67,1.79-.25,1.59.07,1.26-.15,1.27.08,1.37,0,1.51.4,1.15-.79.86-1,.34-.7-.73-.09-1.5.29-2.74V76.26l0-1.18-.19-1.41.48-1.29.24-1.63.53-1.54.65-2.23-.07-1.29.15-1.35,0-1.51-.91-14.25-1.78-4.36-.3-4.17L162,38.49,161.39,37l-.17-1,.06-1-.68-2.19-.07-1.18-.18-1.25.43-2.34,0-1.5.88-2.28.65-1.3.71-1.14.61-1.09.28-1,.15-1.18,1-1,1.07-.63,1.46-.69Z"/><path id="f-2" data-name="f" class="cls-1" d="M162.12,81.53l.09-1.28-.09-1.56.44-1.38.27-1.77.49-1.65.62-2.4V70.07l.18-1.47.09-1.64-.09-15.64-.8-.45-1.29.36-1.2.18-.89.26-1.46-.08-1.11-.36-1.51-1.55-.49-.85-.09-.62.09-1,.75-1,1-.71,2.35-.4h1l1.11.22,1.06-.67.36-.53v-.71l-.18-1.56-.27-1.73-.44-1.64L162,37.37l.09-1.07-.44-2.44V32.57l-.09-1.38.44-2.53.09-1.65.8-2.44.58-1.38.62-1.2.53-1.15.27-1,.18-1.29.84-1.07.89-.62,1.2-.67,1.38-.35,1.15-.09,1.29-.36,1.64.36,1.38.44,1,.45,1.91,2,.76.89.09.89-.41.84-1.73,1h-1.78l-1.37.09-1.11.4-1.16.62-1.29,1-.84,1.07-.18,1.2L168,28l-.44,1.65-.45,1.73-.31,1.82-.09,2.09-.44,1.55.17,1.65v3.37l.18,1.25.09.75.76.72,1,.44,1.91.09.67.4,1.07-.18,1.37.18h1.56l1.64.71.63.44.88.58-.53.36-3.82,1.15h-1.38l-2.35.76-1.2.09-1.78,1.15-.31.58V54.7l-.09,2.35.09,1.33-.09,1.38v3.56l-.09,1.55-.35,1.47v1.33l-.09,1.73L166,71.14l-.27,2.26-.84,1.82L164.56,77l-.62,1.91-.26,1.73,1.37,2.08-1.55.68Z"/><path id="ee" class="cls-1" d="M205.52,53.37l-.85,1.26-1.36.75-1.64.7-2,.66-2.21.19-2,.47-1.41.7-1.64.56L191,59l-2.21.09-1.74-.19-1.17.1-1,.37-.47,1.08.19,2,.56,1.08,1.08,1.31,2,2.21,1,1,2,1,1.08.52,1.31.56h1.55l1.46-.38,1.22-.18,1.36-.52,1.36-.28.33-.55.61.92-.47.52-.84.56L198.8,71l-1.55.8-1.45.56-1.41.38-2.11-.1-2.12-.47-1.73-.89-2-1.31-1.83-1.55-1.27-.84-.94-.89-.8-1.12-.56-.43-1.18-2.85-1-2.49-.66-2-.23-1.55.14-1.73.38-1.83.37-1.55.47-1,.47-1.17.42-.56.85-.75.65-.1,1.18-1.64,1.36-1.17,1.41-.75,1.74-.28h2.2l1.83-.09,2.49.28,2,.56,5.59,2.77,1.46.89,1.36,1.22.75,1,.47,1.64Zm-7-2.35-1.21-1.69-1.74-1.15-1.92-1-2.11-.22-2,.16-1.77.93L186,49.34l-1.49,2-.88.87-.86,1.85.48,1.25.86-.27,1.46.08,2.46-.19,2.14.61,2.14-.17,2.31-.38,2-1,1.77-.94Z"/><path id="e" class="cls-1" d="M204.78,53.62l-.8,1.2-1.29.71-1.56.66-1.91.62-2.09.18-1.91.45-1.33.66-1.56.54-1.28.35-2.09.09-1.65-.18L186.2,59l-1,.36-.45,1,.18,1.91.53,1,1,1.25,1.91,2.08,1,.94,1.91,1,1,.48,1.25.54h1.47l1.37-.36,1.16-.18,1.29-.48,1.28-.27H201l.08.35-.44.49-.8.54-1.38.71-1.46.75-1.38.54-1.33.35-2-.09-2-.44-1.65-.85-1.91-1.24L185,67.92l-1.2-.8-.89-.84-.76-1.07-.53-.4-1.11-2.71-1-2.35-.62-1.91-.22-1.47.13-1.64.36-1.74.35-1.46.45-1,.44-1.11.4-.53.8-.72.62-.08,1.12-1.56,1.28-1.11,1.34-.71,1.64-.27h2.09l1.73-.09,2.36.27,1.91.53L201,47.79l1.37.85,1.29,1.15.71.94.45,1.55Zm-6.62-2.23L197,49.79l-1.65-1.09-1.81-1-2-.21-1.91.15-1.66.89-1.64,1.26-1.41,1.9-.83.82-.82,1.75.46,1.19.82-.25,1.38.07,2.32-.18,2,.58,2-.17,2.19-.36,1.91-.9,1.67-.88Zm2.08,15.73-.53.45-.49-.45.27-.57h.66Z"/></g></svg>