<svg xmlns="http://www.w3.org/2000/svg" xmlns:xlink="http://www.w3.org/1999/xlink" viewBox="0 0 346.34 346.44"><defs><style>.cls-1{fill:#b4d4b6;}.cls-2{fill:#fff;}.cls-3{fill:#ad5837;}.cls-4{fill:url(#名称未設定グラデーション_37);}.cls-5{fill:#ccaaa3;}.cls-6{fill:#cdaba3;}.cls-7{fill:url(#名称未設定グラデーション_14);}.cls-8{fill:url(#名称未設定グラデーション_15);}.cls-9{fill:url(#名称未設定グラデーション_11);}.cls-10{fill:url(#名称未設定グラデーション_21);}</style><linearGradient id="名称未設定グラデーション_37" x1="284.79" y1="180.52" x2="332.68" y2="182.1" gradientUnits="userSpaceOnUse"><stop offset="0.13" stop-color="#fff"/><stop offset="0.26" stop-color="#f9f5f4"/><stop offset="0.49" stop-color="#ead9d5"/><stop offset="0.79" stop-color="#d0aca5"/><stop offset="1" stop-color="#bd8a7f"/></linearGradient><linearGradient id="名称未設定グラデーション_14" x1="59" y1="204.19" x2="285.76" y2="204.19" gradientUnits="userSpaceOnUse"><stop offset="0.61" stop-color="#fff"/><stop offset="0.73" stop-color="#ede1de"/><stop offset="0.91" stop-color="#d6bab3"/><stop offset="1" stop-color="#cdaba3"/></linearGradient><linearGradient id="名称未設定グラデーション_15" x1="61.23" y1="204.19" x2="180.07" y2="204.19" gradientUnits="userSpaceOnUse"><stop offset="0" stop-color="#cdaba3"/><stop offset="0.54" stop-color="#eee3e0"/><stop offset="0.83" stop-color="#fefdfd"/><stop offset="0.98" stop-color="#fff"/></linearGradient><linearGradient id="名称未設定グラデーション_11" x1="70.04" y1="153.22" x2="279.18" y2="153.22" gradientUnits="userSpaceOnUse"><stop offset="0.14" stop-color="#a74d2a"/><stop offset="0.88" stop-color="#8a3218"/></linearGradient><linearGradient id="名称未設定グラデーション_21" x1="104.64" y1="172.29" x2="270.82" y2="172.29" gradientUnits="userSpaceOnUse"><stop offset="0.32" stop-color="#efa56a"/><stop offset="0.47" stop-color="#ec9e64"/><stop offset="0.91" stop-color="#e58d54"/></linearGradient></defs><g id="レイヤー_16" data-name="レイヤー 16"><circle class="cls-1" cx="173.23" cy="173.23" r="173.23"/></g><g id="Aのコピー_2" data-name="Aのコピー 2"><g id="レイヤー_6のコピー_4" data-name="レイヤー 6のコピー 4"><ellipse class="cls-2" cx="174.54" cy="209.57" rx="138.75" ry="62.49"/><path class="cls-3" d="M301.17,184c-21.37-22.12-70.31-37.59-127.28-37.59-38.71,0-73.71,7.15-98.87,18.66a48.64,48.64,0,0,0-8.58,27c0,39.82,52.72,72.1,117.74,72.1s117.73-32.28,117.73-72.1A44.81,44.81,0,0,0,301.17,184Z"/><path id="totte" class="cls-2" d="M293.54,167.9c-2.58-.07-6,.4-10.17-12.1a8.17,8.17,0,0,1,.17-1.75c.07-33.41,54.48-39.19,60.21,1.38,0,.06,9.21,48.76-54.33,50-3.1.06-5.29,2.24-11.75,8.39-1.19,1.12-1.5,1.66-2.86,1.08-2.89-1.21-17.6-32.16,26.87-27.2a9.1,9.1,0,0,0,3.52-.39c71-26.71-13.7-61.93-9.75-22.71C295.67,166.81,296.15,168,293.54,167.9Z"/><path class="cls-4" d="M334.74,177c1.87-5.2-.25-12.78-1.45-16.33,2.08,7.75-4.17,17.72-28.09,26.72a9.1,9.1,0,0,1-3.52.39c-24.76-2.76-31.17,5.6-31.49,13.77C327.31,200.29,332.57,183,334.74,177Z"/><path class="cls-5" d="M274.82,215c1.36.57,1.68,0,2.86-1.09l1.92-1.82c-7.41-2.06,1.84-12.43,4.58-23.16a3.77,3.77,0,0,0,.09-1C260.71,190.84,272.41,214,274.82,215Z"/><path class="cls-6" d="M293.54,167.9c2.11.06,2.2-.69,2-2.1-1.76.58-4.11.77-5.37-1.65-1.58-3-2.78-19.86,2.06-29.77a25.49,25.49,0,0,0-8.73,19.67,8.17,8.17,0,0,0-.17,1.75C287.56,168.3,291,167.83,293.54,167.9Z"/><path class="cls-7" d="M61.36,148.31c-.08,1.63-.13,3.26-.13,4.91,0,59,50.76,106.84,113.38,106.84S288,212.22,288,153.22c0-1.65,0-3.28-.12-4.91Z"/><path class="cls-8" d="M180.07,148.31H61.36c-.08,1.63-.13,3.26-.13,4.91,0,59,50.76,106.84,113.38,106.84,1.83,0,3.65-.05,5.46-.13Z"/><ellipse class="cls-2" cx="174.61" cy="153.22" rx="113.38" ry="82.97"/><ellipse class="cls-9" cx="174.61" cy="153.22" rx="104.57" ry="74.03"/><path class="cls-10" d="M108.61,190.3a6.79,6.79,0,0,0-1,11.8c17.32,11.9,40.95,19.23,67,19.23,53.14,0,96.21-30.49,96.21-68.11a51.37,51.37,0,0,0-7.63-26.62,6.81,6.81,0,0,0-8.67-2.74C216.38,141.31,155.52,169.09,108.61,190.3Z"/><g id="Forest-"><path class="cls-2" d="M123.7,114l-.34,1.37-1,1.09-1.09.68-1.37.11-3.88-.45-2.92-.86h-2.45l-1.66.52-1.77.91-1.72.68-.51.69-1.14.51-2.92,2.23L99.48,123l-.92,1.65-.68,1.89-1.09,1.94-.23,2.12.23,2.57-.57,2.34-.46,2.68-.23,2.75v2.57l-.28,1.94.63,1.2,1.14.68,2.23.46,3.77-.46h2.23l1.94.46,2.57.4,1.2.57,1.66-.34,1.48.57.23,1.37-1.83,1.09h-4.34l-3.2-.12h-4.4l-2.11.46-2.23-.23-1,1-.12,1.66-1.37,1.43-1.31,1-.23,1.66.23,1.83.23,4.34.4,3.54.11,3.49v4l.12,4.34.57,4.05.23,3.55,1,2.22.75,1.72v2.11l-.75,1.66-.34,1-.68.74-.8.23-.86-.52-1.83-1.71-1.2-1.43-.91-2.11-.23-2.12.57-1.37.91-1.31-.34-3.94-.57-5.77-.11-4.29-.23-4.11-.35-2.69-.85-3.19v-3.15l-.57-2.34-.23-3.94-.8-8,.34-3.26-.63-8.39v-3.09l.29-2.68.8-3.15-.35-1.88.92-2.69.68-3.48,1.2-1.89,2-.85h2.35l1-.57,1.2-.12.69-.91,1.66-1.09,1.71-1,2.34-1.88,1.09-1.49,1.6-1.08,1.65-.69h1.89l2.34.69,1.49,1.2,5.14,1.14.74.91,1.72.29.51.8,1.14,1.14,1.32.4.8,1.14Z"/><path class="cls-2" d="M142,173.16l-.23,2-.4,1.83-.8,1.43L140,180l-1,1.6-1.37,1-.92,1.37-1.88,1-1.89.68-2.23.23-2.22.34-2.12.23-2.22-.46-1.83-.34-1.77-.68-1.43-.63-1.49-1.37-1.31-1.55-1.37-.8L114,179l-.69-1.6-.8-1.54-.11-1.77-.17-2.23.28-1.6.57-2.23v-2.23l.69-2.22L115,160l1.25-1.14.23-1.31,1.2-.92,1.49-1,1.43-.86,2.11-.46,1.37.23,1.2.69.69,1.31.22,1.14-.11,1.54-.91,1.2-1.09,1.38-.68,1.54-.12,1.48-1.14,1.09-.63,2.11-.57,1.37-.12,2.12v1.77l.35,1.88.8,1.49,1,1.2,1.26.91,1.19,1.2,1.49.46,1.89.11.22.35,2.12-.12,1.88-.34,2.12-1.43,1.25-1.26,1-1.88.35-1.77v-2.34l-.57-1.38-1-1.77-1-1.42-1.32-1.26-1.37-1.09-1.08-.8-.8-.68-.23-1.2.45-.8h1.09l1,.68,1.43.58.91.74,1.89,1.25,1.25,1,.86,1.25,1,1.55.91,1.37.52,1.31Zm-11.71-12.74-.69.23-.74-.63.46-.45.74.11Z"/><path class="cls-2" d="M170.64,159.11l-.8.23-1.08-.12h-1l-1.54.23-1.89,1.09-.91,1.26-1.89.8-.8,1-1.54,1.37-.69,1.43-.45,1.31v1.71l-.46,1.32-.51,1.37-.46,1.54-.12,1.66V179l-.11,1.66-.46,1.65-.11,1.6-.23,1.78v1.65l-.86,1.72-1,1-1.54.45-1,.23-.91-.23-.86-.91-.45-1.09-.46-1.14.11-1.31-.11-1.89v-2.68l-.12-1.26.12-1.43.11-1.88v-1.6l.23-1.89.12-1.88-.12-2.12v-1.71l-.23-1.43-.11-1.31-1-1.6-.8-1.32-.46-1.37-.11-1.54.23-1.43.57-1,1-.68,1.6-.57,1.77-.86,1.54.23,1.94.86.23,1.14.86,1.54v2.34l.68.69.69.11,1-.23,1.14-.91,1.55-1,1.77-.8,1.48-.86,1.77-.23,1.89-.45h1l1.42.45.46.86Z"/><path class="cls-2" d="M206.31,164.94l-1,1.54-1.65.91-2,.86-2.46.8-2.68.23-2.46.57-1.71.86-2,.68-1.66.46L186,172l-2.11-.22-1.43.11-1.25.46-.58,1.31.23,2.46.69,1.31,1.31,1.6,2.46,2.69,1.26,1.2,2.45,1.25,1.32.63,1.59.69h1.89l1.77-.46,1.49-.23,1.65-.63,1.66-.34h1l.11.46-.57.63-1,.68-1.77.92-1.88,1-1.77.68-1.72.46-2.57-.12-2.57-.57-2.11-1.08-2.46-1.6-2.23-1.89-1.54-1-1.14-1.08-1-1.37-.69-.52-1.43-3.48-1.25-3-.8-2.46-.29-1.88.17-2.11.46-2.23.46-1.89.57-1.25.57-1.43.51-.69,1-.91.8-.12,1.43-2,1.66-1.42,1.71-.92,2.11-.34h2.69l2.23-.12,3,.35,2.46.68,6.8,3.37,1.77,1.09,1.66,1.48.91,1.2.57,2Zm-10.85-3.34-1-1-1.49-.75-1.66-.7-1.88-.23h-1.83l-1.66.47-1.65.69-1.49,1.1-.86.46-.91,1,.34.75.8-.11,1.32.11h2.23l1.88.46h1.94l2.12-.11,1.88-.46,1.66-.46Zm5,20.7-.68.58-.63-.58.34-.74h.86Z"/><path class="cls-2" d="M209.36,153.05l-.86.46-.91-.74.69-.92,1.08.23Zm25.94,26.8-.23,1.6-.57,1.77-.8,1.54-1.2,1.14L231,187.22l-1.31.45-1.43.8-1.26.58-1.77.11h-3.6l-1.2-.91-1.6-.12-2.22-.57-1.89-.74-1.08-.92-1.15-.45-.68-1.32-.63-1.25v-1.66l.63-1.66.45-1,.8-1.14,1-.17.45,1-.45,1.26-.12,1.43v1.65l.8,1.26,1.54.57,1.6.63,1.43.57,2.34.23,1.49.69L225,186l1.55-.46,1.14-.68,1.54-1.09,1.14-.91.86-.86.12-1.6v-1.89l-.58-1.42-1.2-1.49-1.65-.57-1.94-1-.75-.69-2.11-1.08-1.49-.92-1.65-.68-1-.57-1.54-.4-1-.12-1.43-.8-1.31-.8-.8-1.43-.8-1.14-.58-1.54-.11-1.77.46-1.6.11-1.43.69-1.66.91-1.37,1-1.31.23-.69.8-1h1.09l.34-1.2,1.26-.34,1.31-.68,1.54-.12,1.72-.28,2.22-.69,2-.46h1.66l1.6.46,1.2.69,1.37,1.08.86.57.91,1.32.34.8v1.65l-.8,1.26-.8.86-1.44.57-2.35.23-1.89-.23-1.6-.12-1.78.35-1.67.8-1.14.85-1.09,1.15-.46,1.65.69,1.26,1.09,1,1.49.34,1.09.8,1,.92,1.2,1,1,1.14,1.09.23.91.51.81,1,1.09.46,1,.63,1.2,1,.92,1.14.11,1.66.35,1.88Z"/><path class="cls-2" d="M270.45,152.65l-.11.86-.86.57-1.48.35-1.66.11-1.77.46H263l-1.77.11-2.23.52-1.31-.4-1.6.51-1.2.8-.57.91v1.09l-.12,1.77-.46.91v1.38l-.34,1.54-.63,2.23-.23,1.88v7.37l.12,1.77-.12,2.17-.45,1.66-.12,1.31-.22,2.23.45,3.94.46,1,.74,1.6,1.14.86,2.12.8,1.26-.11h2.51l-.63.91-2,.74h-2.69l-1.71-.28-1.77-.57-1.66-1-1.71-.57-1.77-1.89-.86-1.88-.11-2.12L245,184l-.46-1.49.23-2.22V178l-.23-1.77.35-1.65-.58-2.23-.22-2.57-.12-2.06.12-1.89.45-2.11v-7.37l-1.54.23-1.48.46-1.66.57-1.14.85-1.09.23-.8-.11-.46-.57v-.63l.23-1,.69-.68,1.2-.63,1.26.11,1.54-.34,1.48-.23,1.77-.11.23-1-.23-1.66.23-1.88.12-2.46-.12-1.6-.23-1.43-.45-1.43v-1.25l.68-1.43,1.66-.8,1.14-1.2,1.77-.69,1.43.12,1.26.57,1.31.86.46.79.91,1.09.34.91.86,1.43.23.69-.11,1.66-.46,1.25-.17,1.43-.57,1.14.22,1.09,1,.68,1.6.35,1.54-.23h4.34l1.26.23,2.23.11,1.65.46.8.11Zm-1.77,7-.68,1.2-1.43-.23-.23-1.08,1-.35Z"/></g><path class="cls-2" d="M206.5,158.63a1.16,1.16,0,0,1-1.2-.48c-.64-.86-1.57-2.42-.81-3.4,1.11-1.41,3.37-1.44,3.63-.52s.69,3.92-.33,4.13Z"/><path class="cls-2" d="M263.9,161.44a1.54,1.54,0,0,1,1.37-.18c.93.36,2.39,1.11,1.94,2.19-.64,1.56-2.9,2.58-3.46,2s-2-2.64-1.05-3.25Z"/><path class="cls-2" d="M246.17,130.71a.9.9,0,0,1-.39-1.46c.32-.35.68-.68,1-.68.62,0,16.05-1,16.43-.34.51,1-2.78,3.2-4.06,3.19C258.15,131.41,249.47,131.77,246.17,130.71Z"/><path class="cls-2" d="M126,128.24a22.38,22.38,0,0,0,6.29.17.66.66,0,0,1,.2,0c5.32.79,1.39,2.6.63,2.92a1,1,0,0,1-.25.06c-.87.07-6.19.49-6.42,0-.14-.31-1-.78-1.53-1.51A1,1,0,0,1,126,128.24Z"/><path id="cc" class="cls-2" d="M139.35,123.51l-.44.66-.45-.39-.49-.54.58-.62h.8Zm23.37-3.91-.18,1.2-.44.89-1.2,2.09-1.24.39h-1.74l-1.46-.48-1.16-.18-1.55-.45h-1.38l-.93.36-1.6.93-.94,1-1,1.29-.67,1.29L146.9,129l-.26.76-.63.53-.4,1.82-.08,1.34V136l.57,1.38,1.16,1.16,1,.44,1.56.49,1,.44h3.38l1.47-.26.8-.36.62-.49.84.09.45.76-.18.62-.89.71-1.2.58-1.55.62-1.38.44-1.16.18-2.26.22-2.14-.22-1.24-.53-1.2-.53-1.24-.85-.94-.35-.53-1.25-.58-1.11-.35-1.29-.18-1.64-.45-1.82-.26-2V130l-.09-1.91.09-1.47.26-1.56.63-1.28.26-.89v-1.74l.4-1.29,1.74-1.51.8-.4.62-.17,1.64-.63,1.11-.35,1-.09,1.64-.4,1.65-.62,1.29-.36L155,115l1.29.09,1.46.26,1.38.45,1.34,1,1.11.71.88.93Z"/><path id="c" class="cls-2" d="M139.35,123.51l-.44.66-.45-.39-.49-.54.58-.62h.8Zm23.37-3.91-.18,1.2-.44.89-1.2,2.09-1.24.39h-1.74l-1.46-.48-1.16-.18-1.55-.45h-1.38l-.93.36-1.6.93-.94,1-1,1.29-.67,1.29L146.9,129l-.26.76-.63.53-.4,1.82-.08,1.34V136l.57,1.38,1.16,1.16,1,.44,1.56.49,1,.44h3.38l1.47-.26.8-.36.62-.49.84.09.45.76-.18.62-.89.71-1.2.58-1.55.62-1.38.44-1.16.18-2.26.22-2.14-.22-1.24-.53-1.2-.53-1.24-.85-.94-.35-.53-1.25-.58-1.11-.35-1.29-.18-1.64-.45-1.82-.26-2V130l-.09-1.91.09-1.47.26-1.56.63-1.28.26-.89v-1.74l.4-1.29,1.74-1.51.8-.4.62-.17,1.64-.63,1.11-.35,1-.09,1.64-.4,1.65-.62,1.29-.36L155,115l1.29.09,1.46.26,1.38.45,1.34,1,1.11.71.88.93Z"/><path id="a" class="cls-2" d="M191.07,140.08l-.09.62-.66.67-1.61.74-.71-1,.48-1.67-.61-.93-.38-1.29-.37-.36-.57.27-.8.49-.85,1-1.36.75-.85.8-1.46.71-1.64.58-1.42.44-1.27.36-.94.35-1-.26-1.36-.18-1.6-.62-1.46-.85-.9-1.06-.65-1.2-.1-1.91v-1.29l.28-1.42.9-1.47.85-1.38,1.17-1,1.23-.85,1.64-.27,1.46-.17,1.65-.36,1.41-.84,1.84-.89.89-.36.94-.26.38-.94-.75-1.28-.9-1.16L180,121l-1.93-.54-1.55-.09-.57.09h-1l-1.17.54-1,.62-1.27.18h-1.41l-1.65.4H167l-1.17-.58-.85-.8-.1-1.11.29-1,1-1.11,1-1.29,1.27-1,1.41-.71,1.56-1.2,1.46-.62,2.68-.49,2.3-.18,1.65.45,1.37.66,1.46.45,1.64,1,.85.8.85,1.29.61,1.64.47,1.6.66,2.14.61,1.6.09,1.37.77,1.51.49,2.08-.6,2.23.85,3.65.52,1.37.94,1,.5,2Zm-6.54-9.46-.38-.54-1.36-.35-1.18.09-1,.44-1.17.36-1.23.62-1.17.18-1,.49-.89.62-.57.8-.7,1-.19.89-.38.84v1.07l.47.93,1.27.36h1.37l1.5-.36.71-.71.94-.22,2.21-1.42,1.09-.67.75-1.15.8-.94.09-1.24Z"/><path id="a-2" data-name="a" class="cls-2" d="M189.6,140.08l-.08.62-.63.67h-.66l-.71-.75-.36-1.16-.58-.93-.35-1.29-.36-.36-.53.27-.76.49-.8,1-1.29.75-.8.8-1.37.71-1.56.58-1.33.44-1.2.36-.89.35-.93-.26-1.29-.18-1.51-.62-1.38-.85-.84-1.06-.63-1.2-.08-1.91v-1.29l.26-1.42.85-1.47.8-1.38,1.11-1,1.15-.85,1.56-.27,1.37-.17,1.56-.36,1.33-.84,1.74-.89.84-.36.89-.26.35-.94-.71-1.28-.84-1.16L179.16,121l-1.82-.54-1.47-.09-.53.09h-.93l-1.11.54-1,.62-1.2.18h-1.33l-1.56.4h-1.38l-1.11-.58-.8-.8-.09-1.11.27-1,.93-1.11,1-1.29,1.2-1,1.33-.71,1.47-1.2,1.38-.62,2.53-.49,2.18-.18,1.55.45,1.29.66,1.38.45,1.55,1,.8.8.8,1.29.58,1.64.45,1.6.62,2.14.58,1.6.08,1.37-.08,1.74.44,2,.27,2.09.8,3.65.49,1.37.44,1.25.36,1.55Zm-6.17-9.46-.36-.54-1.29-.35-1.11.09-1,.44-1.12.36-1.15.62-1.11.18-1,.49-.84.62-.54.8-.66,1-.18.89-.36.84v1.07l.45.93,1.2.36h1.29l1.42-.36.66-.71.89-.22,2.09-1.42,1-.67.71-1.15.76-.94.09-1.24Zm2.35,11.93-.42-.79-.83-.39-.42.86.42.52Zm6.75-11.75-.37.63-.89.48-.66-1.16,1-.83Z"/><path id="f" class="cls-2" d="M203.08,100.44l-.3,1.68V104l-.48,1.45.31,1.48.17,3.08.28,3.89.15.68.49,4,.18,3.08v2.15l.17,1.21,0,1.26.18,3.24,0,1.43-.37,1.36.07,1.21,0,1.59-.13,1.59-.22,2.09-1,1.71-.35,1.61-.68,1.78-.24,1.6.07,1.26-.15,1.27.07,1.37,0,1.51.39,1.15-.78.86-1,.34-.71-.73-.08-1.5.29-2.74v-1.83l0-1.18-.19-1.41.48-1.29L200,141l.52-1.53.65-2.23-.07-1.3.15-1.34,0-1.51-.91-14.25-1.79-4.36-.3-4.17-.42-1.57-.64-1.46-.17-1,.06-1-.68-2.19-.06-1.18-.18-1.25.42-2.34,0-1.5.87-2.29.65-1.29.71-1.14.61-1.09.28-1,.15-1.18,1-1,1.08-.62,1.46-.7Z"/><path id="f-2" data-name="f" class="cls-2" d="M197.91,151.78l.09-1.29-.09-1.55.45-1.38.26-1.78.49-1.64.63-2.4v-1.42l.17-1.47.09-1.64-.09-15.64-.8-.45-1.29.36-1.2.18-.88.26-1.47-.09-1.11-.35-1.51-1.56-.49-.84-.09-.62.09-1,.75-1,1-.71,2.36-.4h1l1.11.22,1.07-.67.35-.53v-.71l-.18-1.56-.26-1.73-.45-1.64-.09-1.11.09-1.07-.44-2.44v-1.29l-.09-1.38.44-2.53.09-1.65.8-2.44.58-1.38.62-1.2.54-1.15.26-1,.18-1.28.84-1.07.89-.62,1.2-.67,1.38-.35,1.16-.09,1.28-.36,1.65.36,1.38.44,1,.44,1.91,2,.76.89.09.89-.4.84-1.73,1h-1.78l-1.38.09L208,93l-1.16.62-1.28,1-.85,1.07-.18,1.2-.71,1.33-.44,1.64-.45,1.74-.31,1.82-.09,2.09-.44,1.55.18,1.65v3.37l.18,1.25.08.75.76.71,1,.45,1.91.09.66.4,1.07-.18,1.38.18h1.55l1.65.71.62.44.89.58-.54.36L209.64,119h-1.37l-2.36.76-1.2.08L202.93,121l-.31.58v3.37l-.09,2.36.09,1.33-.09,1.38v3.55l-.08,1.56-.36,1.47v1.33l-.09,1.73-.18,1.73-.26,2.27-.85,1.82-.35,1.74-.62,1.91-.27,1.73,1.38,2.08-1.56.67Z"/><path id="ee" class="cls-2" d="M241.31,123.61l-.84,1.27-1.37.75-1.64.7-2,.66-2.21.19-2,.46-1.41.71-1.65.56-1.36.37-2.21.1-1.73-.19-1.18.09-1,.38-.47,1.08.19,2,.56,1.08,1.08,1.31,2,2.2,1,1,2,1,1.08.51,1.32.57H231l1.45-.38,1.22-.19,1.37-.51,1.36-.28.32-.55.62.92-.47.52-.85.56-1.45.75-1.55.8-1.46.56-1.41.37-2.11-.09-2.11-.47-1.74-.89-2-1.31-1.83-1.55-1.27-.84-.94-.89-.8-1.13-.56-.42-1.17-2.86-1-2.48-.65-2-.24-1.55.14-1.73.38-1.83.37-1.55.47-1,.47-1.17.43-.56.84-.75.66-.1,1.17-1.64L220,115l1.41-.75,1.74-.28h2.21l1.83-.09,2.49.28,2,.56,5.58,2.77,1.46.89,1.36,1.21.75,1,.47,1.64Zm-7-2.35-1.21-1.68-1.74-1.15-1.92-1-2.11-.23-2,.17-1.76.93-1.73,1.33-1.49,2-.88.87-.86,1.85.48,1.25.86-.27,1.47.08,2.45-.19,2.14.61,2.14-.17,2.31-.39,2-.94,1.76-.94Z"/><path id="e" class="cls-2" d="M240.57,123.86l-.8,1.2-1.29.71-1.55.67-1.91.62-2.09.18-1.91.45-1.34.66-1.55.53-1.29.36-2.09.09-1.64-.18-1.11.09-1,.36-.45,1,.18,1.91.53,1,1,1.24,1.91,2.09,1,.94,1.91,1,1,.49,1.24.54h1.47l1.38-.36,1.15-.18,1.29-.49,1.29-.26h.8l.09.35-.45.49-.8.53-1.37.72-1.47.75-1.38.53-1.33.36-2-.09-2-.44-1.64-.85-1.91-1.24-1.74-1.47-1.2-.8-.89-.84-.75-1.07-.54-.4-1.11-2.71-1-2.35-.63-1.91-.22-1.47.14-1.65.35-1.73.36-1.46.44-1,.45-1.11.4-.54.79-.71.63-.09,1.11-1.55,1.29-1.11,1.33-.71,1.64-.27h2.09l1.74-.09,2.35.27,1.91.53,5.29,2.62,1.38.85,1.28,1.15.72.94.44,1.55ZM234,121.64,232.8,120,231.15,119l-1.81-1-2-.21-1.9.15-1.67.89-1.64,1.26-1.4,1.9-.84.82-.81,1.75.45,1.19.82-.26,1.39.08,2.32-.18,2,.57,2-.16,2.18-.36,1.91-.9,1.67-.88ZM236,137.37l-.54.45-.48-.45.26-.58H236Z"/></g></g></svg>